<svg width="374" height="50" viewBox="0 0 374 50" fill="none" xmlns="http://www.w3.org/2000/svg">
<rect x="214.429" y="3.92865" width="79" height="45.1429" fill="black"/>
<rect x="214.429" y="8.44284" width="79" height="36.1143" fill="#47E34D"/>
<rect x="253.429" y="3.92865" width="79" height="45.1429" fill="black"/>
<rect x="253.429" y="8.44284" width="79" height="36.1143" fill="#47E34D"/>
<rect x="47" y="3.92865" width="309" height="45.1429" fill="black"/>
<rect x="47" y="8.44284" width="309" height="36.1143" fill="#47E34D"/>
<rect x="27" y="3.92865" width="187.429" height="45.1429" fill="black"/>
<rect x="27" y="8.44284" width="187.429" height="36.1143" fill="#47E34D"/>
<path d="M56.4286 49.0714L20 49.0714C8.9543 49.0714 -3.03189e-06 40.1171 -2.06624e-06 29.0714L-1.61664e-06 23.9286C-6.50994e-07 12.8829 8.9543 3.92858 20 3.92858L56.4286 3.92858L56.4286 49.0714Z" fill="black"/>
<path d="M56.4286 44.5572L22.5714 44.5572C12.5987 44.5572 4.51429 36.4727 4.51429 26.5V26.5C4.51429 16.5273 12.5987 8.44287 22.5714 8.44287L56.4286 8.44287L56.4286 44.5572Z" fill="#47E34D"/>
<rect width="36.1143" height="4.51429" transform="matrix(-1 0 0 1 358.473 3.92856)" fill="black"/>
<ellipse cx="15.8" cy="11.85" rx="15.8" ry="11.85" transform="matrix(-1 0 0 1 374.273 25.3715)" fill="black"/>
<rect width="36.1143" height="4.51429" transform="matrix(-1 0 0 1 358.473 44.5571)" fill="black"/>
<ellipse cx="17.4929" cy="12.4143" rx="17.4929" ry="12.4143" transform="matrix(-1 0 0 1 373.145 3.92856)" fill="black"/>
<ellipse cx="6.20714" cy="3.95" rx="6.20714" ry="3.95" transform="matrix(-1 0 0 1 356.216 0.542847)" fill="black"/>
<path d="M340.416 15.7786C340.416 19.83 346.732 23.1143 354.523 23.1143C362.315 23.1143 368.631 19.7286 368.631 15.7786C368.066 11.8286 362.518 8.39578 354.727 8.39578C344.304 7.84724 340.416 11.7272 340.416 15.7786Z" fill="#45E34E"/>
<path d="M338.535 36.657C338.535 41.4356 344.691 44.557 352.285 44.557C359.879 44.557 366.035 41.4356 366.035 36.657C366.035 31.8784 359.879 28.0046 352.285 28.0046C344.691 28.0046 338.535 31.8784 338.535 36.657Z" fill="#1A6D32"/>
<path d="M357.907 32.8193L356.394 30.5417L355.413 31.6984L357.907 32.8193Z" fill="white"/>
<line y1="-3.5" x2="26.552" y2="-3.5" transform="matrix(-0.657401 0.753541 0.753541 0.657401 367.502 18.6)" stroke="#45E34E" stroke-width="7"/>
<line y1="-3.5" x2="9.24981" y2="-3.5" transform="matrix(-0.872823 -0.488037 -0.488037 0.872823 355.088 44.5571)" stroke="#45E34E" stroke-width="7"/>
<line y1="-16.5" x2="29.3429" y2="-16.5" transform="matrix(-1 0 0 1 351.702 44.5571)" stroke="#46E34C" stroke-width="33"/>
<path d="M354.178 8.39587L322.359 8.44302V44.5656H351.984L354.178 8.39587Z" fill="#47E34D"/>
<circle cx="6.77143" cy="6.77143" r="6.77143" transform="matrix(-1 0 0 1 357.345 16.3428)" fill="#000300"/>
<path d="M351.702 41.4423C351.702 42.8385 354.021 43.4285 356.826 43.4285C359.631 43.4285 361.859 42.8385 361.859 41.4423C361.859 40.0461 359.585 38.9142 356.781 38.9142C353.976 38.9142 351.702 40.0461 351.702 41.4423Z" fill="#46E34C"/>
<path d="M342.673 41.7357C342.673 43.2939 347.221 44.5571 352.831 44.5571C358.44 44.5571 361.859 42.8643 362.988 41.7357C362.988 40.1775 359.004 36.0928 353.395 36.0928C348.592 36.0928 342.673 40.1775 342.673 41.7357Z" fill="#46E34C"/>
</svg>
